<svg version="1.2" baseProfile="tiny-ps" xmlns="http://www.w3.org/2000/svg" viewBox="0 0 134 153" width="134" height="153">
	<title>logo-svg-svg</title>
	<style>
		tspan { white-space:pre }
		.shp0 { fill: #5e5873 } 
		.shp1 { fill: #47c8f5 } 
	</style>
	<g id="Layer_2">
		<g id="Layer_1-2">
			<path id="Layer" class="shp0" d="M-632.17 117.93C-637.39 112.38 -640 104.86 -640 95.37C-640 85.88 -637.42 78.36 -632.26 72.81C-627.1 67.21 -620.35 64.41 -612 64.4C-610.5 64.36 -609 64.45 -607.51 64.65C-606.02 64.86 -604.55 65.19 -603.12 65.63C-601.68 66.08 -600.29 66.64 -598.94 67.31C-597.6 67.99 -596.32 68.77 -595.1 69.65C-590.37 73.22 -587.33 78.46 -586 85.38L-595 85.38C-595.2 84.42 -595.49 83.48 -595.86 82.57C-596.23 81.66 -596.67 80.78 -597.2 79.95C-597.72 79.12 -598.31 78.33 -598.97 77.6C-599.62 76.87 -600.35 76.2 -601.12 75.6C-601.91 75.04 -602.74 74.55 -603.6 74.12C-604.47 73.7 -605.37 73.34 -606.29 73.06C-607.21 72.78 -608.16 72.58 -609.11 72.45C-610.07 72.33 -611.04 72.28 -612 72.31C-613.3 72.26 -614.59 72.36 -615.87 72.61C-617.14 72.86 -618.38 73.26 -619.56 73.8C-620.74 74.33 -621.85 75.01 -622.88 75.8C-623.9 76.59 -624.83 77.5 -625.65 78.51C-629.06 82.65 -630.76 88.27 -630.76 95.37C-630.76 102.47 -629.07 108.09 -625.68 112.23C-624.86 113.24 -623.93 114.15 -622.9 114.95C-621.87 115.74 -620.76 116.41 -619.57 116.95C-618.39 117.49 -617.15 117.88 -615.87 118.13C-614.6 118.38 -613.3 118.48 -612 118.43C-610.97 118.44 -609.94 118.36 -608.92 118.2C-607.9 118.04 -606.9 117.79 -605.92 117.46C-604.94 117.12 -604 116.71 -603.09 116.22C-602.18 115.72 -601.32 115.16 -600.51 114.52C-597.23 111.91 -595.26 108.1 -594.6 103.11L-585.69 103.11C-586.43 110.5 -589.3 116.22 -594.3 120.26C-595.53 121.27 -596.86 122.16 -598.25 122.94C-599.64 123.71 -601.1 124.36 -602.61 124.88C-604.11 125.4 -605.66 125.78 -607.24 126.03C-608.81 126.27 -610.41 126.38 -612 126.34C-620.29 126.34 -627.01 123.54 -632.17 117.93Z" />
			<path id="Layer" fill-rule="evenodd" class="shp0" d="M-559.42 126C-565.74 126 -570.87 123.95 -574.82 119.84C-578.77 115.73 -580.74 110.29 -580.73 103.52C-580.73 96.69 -578.76 91.22 -574.82 87.12C-570.88 83.02 -565.75 80.99 -559.42 81.04C-553.03 81.04 -547.9 83.07 -544.01 87.12C-540.12 91.17 -538.18 96.64 -538.19 103.52C-538.19 110.35 -540.13 115.79 -544.01 119.84C-547.89 123.89 -553.03 125.94 -559.42 126ZM-550.22 114.76C-547.97 112.04 -546.84 108.29 -546.84 103.52C-546.84 98.75 -547.97 95 -550.22 92.29C-550.77 91.62 -551.41 91.02 -552.1 90.49C-552.79 89.96 -553.54 89.52 -554.34 89.17C-555.14 88.81 -555.97 88.55 -556.82 88.39C-557.68 88.23 -558.55 88.17 -559.42 88.21C-560.29 88.17 -561.17 88.24 -562.02 88.4C-562.88 88.56 -563.72 88.82 -564.52 89.17C-565.31 89.53 -566.07 89.97 -566.77 90.49C-567.46 91.02 -568.1 91.62 -568.66 92.29C-570.93 95.01 -572.07 98.76 -572.07 103.53C-572.07 108.3 -570.93 112.05 -568.66 114.77C-568.1 115.44 -567.46 116.04 -566.77 116.57C-566.07 117.09 -565.31 117.53 -564.52 117.89C-563.72 118.24 -562.88 118.5 -562.02 118.66C-561.17 118.82 -560.29 118.89 -559.42 118.85C-558.55 118.89 -557.68 118.83 -556.82 118.67C-555.97 118.51 -555.14 118.25 -554.34 117.89C-553.54 117.54 -552.79 117.1 -552.1 116.57C-551.41 116.04 -550.77 115.44 -550.22 114.77L-550.22 114.76Z" />
			<path id="Layer" class="shp0" d="M-504.22 82.05L-495.4 82.05L-511.88 125.05L-521.12 125.05L-537.52 82.05L-528.52 82.05L-522.69 97.79C-518.75 109.5 -516.64 115.88 -516.37 116.93C-516.2 116.38 -515.84 115.27 -515.28 113.6C-514.72 111.93 -513.95 109.65 -512.95 106.74C-511.95 103.83 -510.95 100.84 -509.95 97.79L-504.22 82.05Z" />
			<path id="Layer" fill-rule="evenodd" class="shp0" d="M-453.94 106.28L-486.33 106.28C-485.94 110.5 -484.69 113.68 -482.58 115.81C-482.01 116.35 -481.39 116.84 -480.73 117.26C-480.06 117.67 -479.36 118.02 -478.62 118.3C-477.89 118.57 -477.12 118.77 -476.35 118.89C-475.57 119 -474.78 119.04 -474 119C-468.57 119 -465 116.62 -463.35 111.85L-454.94 111.85C-455.19 112.87 -455.52 113.87 -455.94 114.84C-456.36 115.8 -456.86 116.73 -457.44 117.61C-458.02 118.49 -458.67 119.32 -459.38 120.09C-460.1 120.86 -460.88 121.57 -461.72 122.21C-462.62 122.86 -463.56 123.43 -464.55 123.92C-465.54 124.41 -466.57 124.82 -467.63 125.14C-468.69 125.46 -469.77 125.7 -470.86 125.84C-471.96 125.98 -473.07 126.04 -474.17 126C-480.33 126 -485.3 123.95 -489.07 119.84C-492.84 115.73 -494.73 110.29 -494.73 103.52C-494.73 96.75 -492.84 91.31 -489.07 87.2C-488.14 86.19 -487.1 85.28 -485.98 84.49C-484.85 83.7 -483.65 83.04 -482.38 82.51C-481.11 81.98 -479.79 81.58 -478.44 81.34C-477.09 81.09 -475.71 80.99 -474.34 81.04C-468.01 81.04 -463.01 83.18 -459.34 87.45C-455.67 91.72 -453.87 97.19 -453.93 103.85L-453.94 106.28ZM-486.24 99.66L-462.52 99.66C-462.58 98.88 -462.7 98.1 -462.89 97.34C-463.08 96.58 -463.33 95.84 -463.65 95.12C-463.96 94.4 -464.34 93.71 -464.77 93.05C-465.2 92.4 -465.68 91.78 -466.22 91.21C-466.75 90.68 -467.33 90.2 -467.95 89.79C-468.58 89.38 -469.25 89.03 -469.94 88.75C-470.64 88.48 -471.36 88.28 -472.1 88.15C-472.84 88.03 -473.59 87.98 -474.34 88.01C-475.07 87.98 -475.81 88.02 -476.53 88.14C-477.26 88.26 -477.97 88.44 -478.65 88.7C-479.34 88.96 -480 89.28 -480.63 89.67C-481.25 90.05 -481.83 90.5 -482.37 91C-484.45 93 -485.74 95.89 -486.24 99.66Z" />
			<path id="Layer" class="shp0" d="M-422.72 81.47L-422.72 89.38L-424.8 89.38C-429.08 89.38 -432.38 90.43 -434.71 92.54C-437.04 94.65 -438.2 97.7 -438.21 101.7L-438.21 125L-446.53 125L-446.53 82L-438.53 82L-438.53 89.66C-435.81 84.11 -431.34 81.33 -425.13 81.34C-424.93 81.34 -424.73 81.34 -424.53 81.35C-424.33 81.35 -424.12 81.36 -423.92 81.37C-423.72 81.38 -423.52 81.39 -423.32 81.41C-423.12 81.43 -422.92 81.45 -422.72 81.47L-422.72 81.47Z" />
			<path id="Layer" fill-rule="evenodd" class="shp0" d="M-380.18 118.6L-380.18 125C-380.52 125.04 -380.86 125.08 -381.2 125.12C-381.54 125.15 -381.88 125.17 -382.22 125.2C-382.56 125.22 -382.9 125.23 -383.24 125.24C-383.58 125.25 -383.92 125.25 -384.26 125.25C-386.93 125.25 -388.91 124.76 -390.26 123.79C-390.6 123.51 -390.92 123.19 -391.2 122.84C-391.48 122.5 -391.72 122.12 -391.92 121.73C-392.13 121.33 -392.29 120.91 -392.41 120.48C-392.53 120.05 -392.6 119.61 -392.63 119.17C-395.51 123.72 -400.18 125.99 -406.63 126C-411.35 126 -415.08 124.88 -417.83 122.63C-418.51 122.06 -419.13 121.42 -419.66 120.72C-420.19 120.01 -420.64 119.24 -421 118.43C-421.35 117.62 -421.61 116.77 -421.78 115.9C-421.94 115.03 -421.99 114.14 -421.95 113.26C-421.95 105.49 -416.57 101.05 -405.8 99.94L-399.47 99.27C-399.04 99.25 -398.6 99.19 -398.18 99.11C-397.75 99.02 -397.33 98.91 -396.92 98.76C-396.5 98.62 -396.1 98.45 -395.72 98.25C-395.33 98.05 -394.96 97.82 -394.6 97.57C-394.34 97.34 -394.1 97.09 -393.89 96.81C-393.68 96.53 -393.51 96.22 -393.37 95.91C-393.23 95.59 -393.13 95.25 -393.07 94.91C-393.01 94.57 -392.98 94.22 -393 93.87C-392.96 93.43 -392.97 92.98 -393.04 92.54C-393.11 92.1 -393.23 91.68 -393.41 91.27C-393.58 90.86 -393.8 90.47 -394.07 90.12C-394.34 89.77 -394.65 89.45 -395 89.17C-396.33 88.2 -398.6 87.72 -401.79 87.71C-405.23 87.71 -407.7 88.28 -409.2 89.42C-410.7 90.56 -411.56 92.56 -411.78 95.42L-420.02 95.42C-419.41 85.81 -413.33 81 -401.79 81.01C-390.46 81.01 -384.79 85.23 -384.79 93.67L-384.79 116.39C-384.79 117.84 -384.02 118.56 -382.46 118.56L-380.18 118.6ZM-396.5 116.52C-394.17 114.52 -393 111.69 -393 108.03L-393 103.53C-394.06 104.42 -395.83 105 -398.33 105.28L-404.33 105.94C-407.55 106.33 -409.85 107.1 -411.24 108.23C-411.89 108.85 -412.41 109.59 -412.76 110.41C-413.12 111.24 -413.3 112.12 -413.3 113.02C-413.3 113.92 -413.12 114.8 -412.76 115.63C-412.41 116.45 -411.89 117.19 -411.24 117.81C-409.88 118.95 -407.89 119.51 -405.24 119.51C-404.45 119.54 -403.67 119.49 -402.89 119.37C-402.11 119.26 -401.34 119.07 -400.6 118.81C-399.85 118.56 -399.13 118.24 -398.44 117.85C-397.76 117.47 -397.11 117.02 -396.5 116.52Z" />
			<path id="Layer" fill-rule="evenodd" class="shp0" d="M-343.64 82.05L-335.64 82.05L-335.64 123.43C-335.64 129.31 -337.41 133.93 -340.96 137.29C-344.51 140.65 -349.56 142.32 -356.12 142.29C-361.72 142.29 -366.17 141.02 -369.48 138.47C-370.29 137.85 -371.03 137.14 -371.69 136.36C-372.35 135.58 -372.93 134.74 -373.42 133.84C-373.9 132.94 -374.29 131.99 -374.57 131.01C-374.86 130.03 -375.04 129.02 -375.11 128L-366.78 128C-366.11 133.05 -362.53 135.58 -356.04 135.57C-347.99 135.57 -343.97 131.57 -343.97 123.57L-343.97 118.83C-347.24 123.27 -351.84 125.49 -357.79 125.49C-363.74 125.49 -368.51 123.46 -372.11 119.41C-375.72 115.3 -377.53 109.91 -377.52 103.26C-377.51 96.61 -375.71 91.22 -372.11 87.11C-368.56 83.06 -363.81 81.04 -357.87 81.03C-351.6 81.03 -346.86 83.39 -343.64 88.11L-343.64 82.05ZM-347.09 114.31C-344.84 111.64 -343.71 107.98 -343.72 103.31C-343.73 98.64 -344.85 94.98 -347.09 92.31C-348.25 91.03 -349.67 90.01 -351.25 89.31C-352.83 88.61 -354.54 88.25 -356.27 88.25C-358 88.25 -359.71 88.61 -361.29 89.31C-362.87 90.01 -364.29 91.03 -365.45 92.31C-367.72 95.03 -368.86 98.7 -368.86 103.31C-368.86 107.92 -367.72 111.59 -365.45 114.31C-364.28 115.58 -362.87 116.6 -361.28 117.3C-359.7 117.99 -358 118.35 -356.27 118.35C-354.54 118.35 -352.84 117.99 -351.26 117.3C-349.67 116.6 -348.26 115.58 -347.09 114.31Z" />
			<path id="Layer" fill-rule="evenodd" class="shp0" d="M-287.44 106.28L-319.83 106.28C-319.44 110.5 -318.19 113.68 -316.08 115.81C-315.52 116.35 -314.9 116.84 -314.23 117.26C-313.57 117.68 -312.86 118.03 -312.13 118.3C-311.39 118.58 -310.63 118.77 -309.86 118.89C-309.08 119.01 -308.29 119.05 -307.51 119.01C-302.07 119.01 -298.52 116.63 -296.85 111.86L-288.44 111.86C-288.69 112.88 -289.03 113.88 -289.44 114.85C-289.86 115.82 -290.36 116.74 -290.94 117.63C-291.52 118.51 -292.17 119.34 -292.89 120.11C-293.61 120.88 -294.39 121.58 -295.23 122.22C-296.13 122.87 -297.07 123.44 -298.06 123.93C-299.05 124.42 -300.08 124.82 -301.14 125.15C-302.19 125.47 -303.27 125.7 -304.37 125.84C-305.46 125.99 -306.57 126.04 -307.67 126C-313.84 126 -318.81 123.95 -322.58 119.84C-326.35 115.73 -328.24 110.29 -328.24 103.52C-328.24 96.75 -326.35 91.31 -322.58 87.2C-321.65 86.19 -320.61 85.28 -319.49 84.49C-318.36 83.7 -317.15 83.04 -315.88 82.51C-314.62 81.98 -313.29 81.59 -311.94 81.34C-310.59 81.09 -309.21 80.99 -307.84 81.04C-301.51 81.04 -296.51 83.18 -292.84 87.45C-289.17 91.72 -287.36 97.19 -287.42 103.85L-287.44 106.28ZM-315.88 91C-317.96 93 -319.25 95.89 -319.75 99.66L-296 99.66C-296.06 98.88 -296.18 98.1 -296.37 97.34C-296.56 96.58 -296.81 95.84 -297.13 95.12C-297.44 94.4 -297.82 93.71 -298.25 93.06C-298.68 92.4 -299.17 91.78 -299.7 91.21C-300.23 90.68 -300.81 90.2 -301.43 89.79C-302.06 89.38 -302.73 89.03 -303.42 88.76C-304.12 88.48 -304.84 88.28 -305.58 88.15C-306.32 88.03 -307.07 87.98 -307.82 88.01C-308.56 87.98 -309.29 88.02 -310.02 88.14C-310.75 88.25 -311.46 88.44 -312.15 88.7C-312.84 88.95 -313.5 89.28 -314.13 89.66C-314.76 90.05 -315.34 90.5 -315.88 91Z" />
			<path id="Layer" class="shp0" d="M-216.68 65.73L-202 65.73L-218.27 125L-234 125L-238.91 104C-240.47 97.73 -241.94 90.59 -243.32 82.6C-244.54 89.04 -246.01 96.17 -247.74 104L-252.74 125L-268.47 125L-284.7 65.73L-270 65.73L-265 86.05C-262.89 94.72 -261.14 102.46 -259.76 109.27C-257.87 99.27 -256.32 91.53 -255.1 86.05L-250.35 65.73L-236.28 65.73L-231.54 86.05C-229.98 92.82 -228.42 100.61 -226.87 109.44C-226.1 105.89 -224.35 98.1 -221.63 86.05L-216.68 65.73Z" />
			<path id="Layer" class="shp0" d="M-199.37 125L-199.37 82L-186.37 82L-186.37 125L-199.37 125ZM-199 77.14L-199 66.14L-186.59 66.14L-186.59 77.14L-199 77.14Z" />
			<path id="Layer" class="shp0" d="M-142.84 115.35L-142.84 125L-180.47 125L-180.47 116.84L-165.24 98C-163.29 95.61 -161.52 93.47 -159.91 91.59C-161.19 91.64 -164.07 91.67 -168.57 91.67L-180.31 91.67L-180.31 82.05L-143.67 82.05L-143.67 90.21L-158.91 109C-160.85 111.39 -162.63 113.53 -164.24 115.42C-162.96 115.36 -160.08 115.33 -155.58 115.33L-142.84 115.35Z" />
			<path id="Layer" fill-rule="evenodd" class="shp0" d="M-109.38 125C-109.56 124.62 -109.71 124.24 -109.85 123.84C-109.98 123.45 -110.1 123.05 -110.19 122.65C-110.28 122.24 -110.35 121.83 -110.39 121.42C-110.44 121 -110.46 120.59 -110.46 120.17C-113.35 124.06 -117.93 126 -124.2 126C-128.91 126 -132.69 124.83 -135.56 122.5C-136.27 121.92 -136.9 121.26 -137.46 120.53C-138.01 119.8 -138.48 119.01 -138.85 118.18C-139.22 117.34 -139.49 116.47 -139.66 115.57C-139.83 114.67 -139.89 113.75 -139.85 112.84C-139.85 104.84 -134.24 100.37 -123.03 99.44L-116.29 98.86C-112.57 98.47 -110.71 97.05 -110.71 94.61C-110.71 91.73 -112.9 90.28 -117.29 90.28C-119.95 90.28 -121.82 90.69 -122.9 91.49C-123.98 92.29 -124.64 93.78 -124.9 95.94L-137.77 95.94C-136.99 86.01 -130.13 81.04 -117.2 81.04C-104.44 81.04 -98.06 85.45 -98.05 94.28L-98.05 117.1C-98.05 120.71 -97.47 123.34 -96.31 125.01L-109.38 125ZM-110.71 108.13L-110.71 105C-111.49 105.83 -112.93 106.38 -115.04 106.66L-120.37 107.24C-124.53 107.69 -126.61 109.41 -126.61 112.4C-126.62 112.74 -126.59 113.08 -126.53 113.42C-126.46 113.75 -126.35 114.08 -126.21 114.39C-126.06 114.7 -125.88 114.99 -125.67 115.26C-125.45 115.53 -125.21 115.77 -124.94 115.98C-124.6 116.22 -124.25 116.43 -123.88 116.61C-123.51 116.79 -123.12 116.94 -122.73 117.05C-122.33 117.16 -121.92 117.24 -121.51 117.29C-121.1 117.33 -120.69 117.34 -120.28 117.32C-119.65 117.35 -119.02 117.32 -118.4 117.24C-117.78 117.15 -117.16 117.01 -116.57 116.81C-115.97 116.62 -115.39 116.36 -114.84 116.06C-114.29 115.75 -113.77 115.4 -113.29 115C-111.57 113.47 -110.71 111.18 -110.71 108.13Z" />
			<path id="Layer" class="shp0" d="M-63.43 81.55L-63.43 93.37L-66.75 93.37C-74.36 93.37 -78.16 97.26 -78.16 105.03L-78.16 125.03L-91.16 125.03L-91.16 82.03L-78.5 82.03L-78.5 90.03C-76.5 84.26 -72.42 81.37 -66.26 81.38C-66 81.39 -65.09 81.44 -63.43 81.55Z" />
			<path id="Layer" fill-rule="evenodd" class="shp0" d="M-30.21 65.73L-17.21 65.73L-17.21 125L-29.88 125L-29.88 119.42C-32.76 123.81 -37.06 126 -42.78 126C-48.5 126 -53.05 123.97 -56.43 119.92C-59.82 115.87 -61.52 110.4 -61.51 103.52C-61.5 96.64 -59.81 91.17 -56.43 87.12C-53.1 83.07 -48.55 81.05 -42.78 81.04C-37.34 81.04 -33.15 83.09 -30.21 87.2L-30.21 65.73ZM-29.96 103.53C-29.96 95.48 -33.04 91.46 -39.2 91.46C-39.85 91.43 -40.5 91.48 -41.13 91.61C-41.76 91.74 -42.38 91.95 -42.97 92.23C-43.55 92.5 -44.1 92.85 -44.6 93.26C-45.1 93.67 -45.55 94.14 -45.94 94.66C-47.55 96.8 -48.35 99.87 -48.36 103.86C-48.36 111.69 -45.31 115.6 -39.2 115.6C-33.09 115.6 -30.03 111.58 -30 103.53L-29.96 103.53Z" />
			<path id="Layer" class="shp1" d="M30.93 91.71C26.75 87.53 24.66 81.86 24.67 74.71C24.68 67.56 26.72 61.89 30.8 57.71C34.85 53.53 40.43 51.44 47.52 51.45C48.82 51.41 50.13 51.49 51.42 51.67C52.72 51.85 53.99 52.14 55.24 52.53C56.48 52.92 57.69 53.42 58.85 54.01C60.01 54.61 61.12 55.3 62.17 56.08C63.16 56.87 64.08 57.76 64.9 58.73C65.72 59.71 66.44 60.75 67.06 61.87C67.67 62.98 68.18 64.15 68.57 65.36C68.96 66.57 69.22 67.82 69.37 69.08L56.73 69.08C56.61 68.58 56.45 68.08 56.25 67.61C56.05 67.13 55.8 66.67 55.52 66.24C55.24 65.8 54.92 65.39 54.56 65.02C54.21 64.64 53.82 64.29 53.41 63.98C52.98 63.68 52.53 63.41 52.07 63.18C51.6 62.95 51.11 62.76 50.61 62.61C50.11 62.45 49.6 62.34 49.08 62.27C48.56 62.2 48.04 62.18 47.52 62.19C46.83 62.15 46.13 62.19 45.44 62.31C44.76 62.44 44.09 62.64 43.46 62.92C42.82 63.21 42.22 63.57 41.67 63.99C41.12 64.42 40.62 64.91 40.19 65.45C38.52 67.62 37.68 70.73 37.69 74.78C37.7 78.83 38.53 81.94 40.19 84.11C40.62 84.65 41.12 85.14 41.67 85.57C42.22 85.99 42.82 86.35 43.46 86.64C44.09 86.92 44.76 87.12 45.44 87.25C46.13 87.37 46.83 87.41 47.52 87.37C48.08 87.39 48.63 87.37 49.19 87.29C49.74 87.22 50.28 87.1 50.81 86.93C51.34 86.76 51.86 86.54 52.35 86.28C52.84 86.02 53.31 85.71 53.75 85.37C54.17 85.01 54.56 84.61 54.91 84.17C55.27 83.74 55.58 83.28 55.85 82.79C56.12 82.3 56.34 81.79 56.52 81.26C56.7 80.73 56.83 80.19 56.91 79.64L69.44 79.64C68.73 85.49 66.39 90.02 62.44 93.23C58.49 96.44 53.51 98.03 47.52 98C40.59 98 35.06 95.9 30.93 91.71Z" />
			<path id="Layer" class="shp1" d="M64 19.76L103 42.26L103 87.26C103.08 88.66 103.7 89.98 104.72 90.94C105.75 91.9 107.1 92.44 108.5 92.44C109.9 92.44 111.25 91.9 112.28 90.94C113.3 89.98 113.92 88.66 114 87.26L114 39.08C114 38.6 113.94 38.12 113.81 37.65C113.68 37.19 113.5 36.74 113.26 36.33C113.02 35.91 112.72 35.53 112.38 35.19C112.04 34.85 111.66 34.55 111.24 34.31L69.49 10.22C68.23 9.57 66.77 9.44 65.41 9.84C64.06 10.24 62.91 11.15 62.2 12.38C61.5 13.6 61.29 15.05 61.62 16.43C61.96 17.8 62.81 19 64 19.76L64 19.76Z" />
			<path id="Layer" class="shp1" d="M130.89 24.83L89.16 0.74C87.9 0.05 86.42 -0.12 85.03 0.27C83.64 0.66 82.47 1.57 81.75 2.82C81.03 4.07 80.82 5.54 81.18 6.94C81.53 8.33 82.42 9.53 83.65 10.28L122.65 32.78L122.65 77.78C122.73 79.18 123.35 80.5 124.37 81.46C125.4 82.42 126.75 82.96 128.15 82.96C129.55 82.96 130.9 82.42 131.93 81.46C132.95 80.5 133.57 79.18 133.65 77.78L133.65 29.6C133.65 29.12 133.59 28.64 133.46 28.17C133.34 27.71 133.15 27.26 132.91 26.85C132.67 26.43 132.37 26.04 132.03 25.7C131.69 25.36 131.31 25.07 130.89 24.83L130.89 24.83Z" />
			<path id="Layer" class="shp1" d="M125.32 94.24L47.22 140.8L11 119L11 54.11L47.2 33.2L83.42 54.11L83.42 95.94L47.33 116.78L27.63 104.34C26.39 103.57 24.9 103.32 23.48 103.65C22.07 103.97 20.83 104.84 20.06 106.08C19.28 107.31 19.02 108.8 19.34 110.22C19.66 111.64 20.52 112.88 21.75 113.66L44.26 127.87C44.48 128.01 44.71 128.13 44.94 128.23C45.18 128.34 45.42 128.43 45.67 128.5C45.92 128.57 46.17 128.63 46.43 128.66C46.68 128.7 46.94 128.72 47.2 128.72C47.44 128.72 47.69 128.71 47.93 128.68C48.17 128.65 48.41 128.61 48.65 128.55C48.88 128.49 49.12 128.41 49.34 128.32C49.57 128.23 49.79 128.12 50 128L91.73 103.91C92.15 103.67 92.53 103.37 92.87 103.03C93.21 102.69 93.51 102.31 93.75 101.89C93.99 101.48 94.17 101.03 94.3 100.57C94.43 100.1 94.49 99.62 94.49 99.14L94.49 50.93C94.49 50.45 94.43 49.97 94.3 49.5C94.18 49.04 93.99 48.59 93.75 48.17C93.51 47.76 93.22 47.37 92.87 47.03C92.53 46.69 92.15 46.4 91.73 46.16L50 22.07L49.67 21.89L49.67 21.89L49.27 21.72L49.17 21.72C49.1 21.69 49.02 21.67 48.94 21.64C48.87 21.62 48.79 21.6 48.72 21.58C48.64 21.56 48.56 21.54 48.48 21.52C48.41 21.51 48.33 21.49 48.25 21.48L48.14 21.48L47.72 21.48L47 21.48L46.64 21.48L46.52 21.48C46.48 21.48 46.45 21.49 46.41 21.49C46.38 21.5 46.34 21.5 46.3 21.51C46.27 21.51 46.23 21.52 46.2 21.53C46.16 21.53 46.13 21.54 46.09 21.55L45.93 21.55L45.56 21.65L45.48 21.65L45.04 21.82L44.92 21.87C44.88 21.89 44.84 21.9 44.81 21.92C44.77 21.94 44.73 21.96 44.7 21.98C44.66 22 44.62 22.02 44.59 22.04C44.55 22.06 44.52 22.08 44.48 22.1L23.71 34L2.71 46.12L2.55 46.22C2.15 46.47 1.79 46.76 1.47 47.1C1.15 47.44 0.87 47.81 0.65 48.22C0.42 48.63 0.25 49.06 0.13 49.51C0.01 49.96 -0.05 50.42 -0.05 50.89L-0.05 99.12L-0.05 99.12L-0.05 122.07C-0.05 122.54 0.01 123.01 0.13 123.47C0.25 123.93 0.43 124.37 0.66 124.78C0.9 125.19 1.18 125.57 1.51 125.91C1.84 126.25 2.21 126.55 2.62 126.79L44.35 151.94C44.78 152.2 45.23 152.39 45.71 152.53C46.19 152.66 46.68 152.73 47.18 152.73C47.68 152.73 48.17 152.66 48.65 152.53C49.13 152.39 49.58 152.2 50.01 151.94L131 103.71C131.4 103.47 131.77 103.17 132.1 102.83C132.43 102.49 132.71 102.11 132.94 101.7C133.17 101.29 133.35 100.85 133.47 100.4C133.59 99.94 133.65 99.47 133.65 99L133.65 99C133.65 98.02 133.4 97.06 132.91 96.22C132.42 95.37 131.72 94.67 130.87 94.19C130.03 93.71 129.07 93.46 128.09 93.46C127.11 93.47 126.16 93.74 125.32 94.24L125.32 94.24Z" />
		</g>
	</g>
</svg>