<?xml version="1.0" encoding="UTF-8"?><svg id="Layer_2" xmlns="http://www.w3.org/2000/svg" viewBox="0 0 652.04 241.73"><defs><style>.cls-1{fill:#000361;}.cls-2{fill:#2173ff;}</style></defs><g id="Layer_1-2"><g><path class="cls-1" d="M190.33,45.68c-1.23-.66-2.74-.59-3.91,.19l-94.63,63.25c-13.52,9.04-21.59,24.13-21.59,40.4v46.66c0,2.1,1.71,3.81,3.81,3.81s3.81-1.71,3.81-3.81v-46.66c0-13.71,6.81-26.44,18.21-34.06l88.69-59.28v62.51c0,2.11,1.71,3.81,3.81,3.81s3.81-1.7,3.81-3.81V49.04c0-1.41-.77-2.7-2.01-3.36Z"/><path class="cls-1" d="M77.4,98.97l88.69-59.28v6.21c0,3.05,3.4,4.86,5.93,3.17,1.06-.71,1.69-1.9,1.69-3.17v-13.35c0-1.4-.77-2.7-2.01-3.36-1.24-.66-2.74-.59-3.92,.2l-94.62,63.24c-13.52,9.04-21.59,24.14-21.59,40.4v46.5c0,2,1.47,3.77,3.45,3.95,2.28,.21,4.17-1.57,4.17-3.8v-46.66c0-13.71,6.81-26.44,18.21-34.06Z"/><path class="cls-1" d="M58.94,84.31L147.64,25.02v4.27c0,3.05,3.4,4.86,5.93,3.17,1.06-.71,1.69-1.9,1.69-3.17v-11.4c0-1.41-.78-2.7-2.01-3.36-1.24-.66-2.75-.59-3.92,.19L54.71,77.96c-13.52,9.04-21.59,24.14-21.59,40.4v46.49c0,1.99,1.45,3.77,3.44,3.96,2.27,.22,4.19-1.57,4.19-3.79v-46.66c0-13.71,6.8-26.44,18.2-34.06Z"/><path class="cls-1" d="M39.52,70.22L128.22,10.95v4.34c0,3.05,3.4,4.86,5.93,3.17h0c1.06-.71,1.69-1.9,1.69-3.17V3.94c0-.91-.27-1.81-.84-2.52-1.31-1.61-3.51-1.84-5.09-.79L35.28,63.89c-13.52,9.04-21.59,24.13-21.59,40.4v46.5c0,2,1.47,3.77,3.45,3.95,2.28,.21,4.17-1.57,4.17-3.8v-46.66c0-13.71,6.81-26.44,18.21-34.06Z"/></g><g><path class="cls-1" d="M259.86,45.16c3.87-2.67,8.72-4,14.55-4,6.72,0,12.14,1.75,16.28,5.26,4.13,3.51,6.96,8.24,8.47,14.2l5.88-1.43c-1.84-7.18-5.34-12.91-10.5-17.19-5.15-4.28-11.86-6.42-20.13-6.42-7.08,0-13.02,1.57-17.83,4.72-4.81,3.15-8.43,7.5-10.87,13.07-2.44,5.57-3.66,11.99-3.66,19.26s1.22,13.7,3.66,19.26c2.44,5.57,6.06,9.92,10.87,13.07,4.81,3.15,10.75,4.72,17.83,4.72,8.27,0,14.97-2.14,20.13-6.42,5.15-4.28,8.65-10.01,10.5-17.19l-5.88-1.43c-1.52,5.93-4.34,10.65-8.47,14.18-4.13,3.52-9.56,5.29-16.28,5.29-5.83,0-10.7-1.34-14.62-4.03-3.92-2.68-6.86-6.39-8.82-11.11-1.96-4.73-2.91-10.17-2.84-16.33,.03-6.16,1.03-11.61,2.99-16.35,1.96-4.74,4.87-8.45,8.74-11.11Z"/><path class="cls-1" d="M349.32,56.94c-3.71-2.39-8.21-3.58-13.51-3.58s-9.66,1.17-13.36,3.51c-3.71,2.34-6.54,5.62-8.52,9.85-1.98,4.23-2.96,9.13-2.96,14.7s.97,10.42,2.92,14.67c1.94,4.25,4.76,7.57,8.45,9.98,3.69,2.4,8.18,3.61,13.49,3.61s9.71-1.19,13.44-3.56c3.72-2.37,6.55-5.67,8.5-9.9,1.94-4.23,2.91-9.16,2.91-14.79s-.96-10.36-2.89-14.57-4.74-7.52-8.45-9.9Zm.59,40.88c-3.11,4.22-7.81,6.32-14.1,6.32s-10.83-2.07-14-6.22c-3.18-4.15-4.77-9.65-4.77-16.5,0-4.41,.68-8.31,2.05-11.68,1.37-3.38,3.43-6.03,6.2-7.95s6.27-2.89,10.52-2.89c6.26,0,10.95,2.04,14.08,6.12,3.13,4.08,4.69,9.55,4.69,16.4s-1.56,12.18-4.67,16.4Z"/><polygon class="cls-1" points="385.01 100.43 368.51 54.84 362.63 54.84 381.99 108.19 388.02 108.19 407.38 54.84 401.45 54.84 385.01 100.43"/><path class="cls-1" d="M455.39,83.15h3.21c.1-6.26-.82-11.61-2.74-16.05-1.93-4.45-4.73-7.85-8.4-10.2-3.67-2.35-8.09-3.53-13.26-3.53s-9.51,1.14-13.21,3.41c-3.7,2.27-6.57,5.52-8.59,9.76s-3.04,9.26-3.04,15.09,1.02,10.69,3.06,14.89c2.04,4.2,4.92,7.44,8.64,9.73,3.72,2.29,8.13,3.43,13.24,3.43s9.83-1.25,13.88-3.75c4.05-2.5,7.15-6.06,9.29-10.67l-5.14-2.27c-1.81,3.59-4.26,6.35-7.33,8.27-3.08,1.93-6.68,2.89-10.79,2.89-5.96,0-10.58-1.98-13.86-5.93-3.02-3.64-4.63-8.68-4.87-15.07h39.91Zm-35.05-18.45c3.28-3.97,7.93-5.95,13.95-5.95s10.31,1.91,13.44,5.73c2.66,3.25,4.24,7.77,4.75,13.53h-36.9c.46-5.56,2.03-10.01,4.76-13.31Z"/><path class="cls-1" d="M489.23,54.37c-1.94,.12-3.87,.51-5.78,1.19-1.91,.67-3.57,1.67-4.99,2.99-.96,.82-1.89,1.89-2.79,3.19-.35,.5-.66,1.02-.96,1.55v-8.44h-5.19v53.35h5.73v-26.43c0-2.17,.11-4.4,.35-6.69,.23-2.29,.76-4.48,1.58-6.57,.82-2.09,2.14-3.93,3.95-5.51,2.07-1.75,4.3-2.77,6.67-3.06,2.37-.3,4.61-.2,6.72,.3v-5.38c-1.58-.43-3.34-.58-5.29-.47Z"/><path class="cls-1" d="M539.71,64.28c-1.32-3.46-3.65-6.14-6.99-8.05-3.34-1.91-7.47-2.87-12.37-2.87-5.76,0-10.49,1.3-14.18,3.9-3.69,2.6-6.14,6.32-7.36,11.16l5.83,1.63c1.05-3.82,2.89-6.64,5.51-8.47,2.62-1.83,5.95-2.74,10-2.74,5.76,0,9.79,1.41,12.08,4.22,2.16,2.65,3.23,6.63,3.23,11.9-1.56,.2-3.37,.42-5.45,.67-3.08,.36-6.31,.78-9.71,1.26-3.39,.48-6.55,1.05-9.48,1.7-2.57,.63-4.91,1.56-7.04,2.82-2.12,1.25-3.82,2.9-5.09,4.94-1.27,2.04-1.9,4.58-1.9,7.61,0,2.8,.67,5.39,2.03,7.78,1.35,2.39,3.38,4.31,6.1,5.75,2.72,1.45,6.13,2.17,10.25,2.17,5.5,0,10.26-1.3,14.28-3.9,2.73-1.77,4.9-4.07,6.52-6.86v9.28h5.19v-33.24c0-1.91-.1-3.81-.3-5.71-.2-1.89-.58-3.55-1.14-4.96Zm-4.84,24.4c-.46,3.2-1.54,5.97-3.24,8.32-1.7,2.36-3.91,4.18-6.64,5.48s-5.91,1.95-9.53,1.95c-3.19,0-5.73-.53-7.61-1.58-1.88-1.05-3.22-2.39-4.03-4-.81-1.61-1.21-3.23-1.21-4.84,0-2.17,.52-3.97,1.56-5.38,1.04-1.42,2.34-2.53,3.9-3.33,1.56-.81,3.12-1.42,4.67-1.85,2.5-.66,5.3-1.2,8.4-1.63,3.09-.43,6.13-.79,9.11-1.09,1.91-.19,3.63-.37,5.2-.55,0,.77-.02,1.68-.04,2.72-.03,2.07-.21,4-.54,5.78Z"/><path class="cls-1" d="M590.69,63.75c-1.6-2.71-3.64-4.96-6.12-6.73-3.42-2.44-7.62-3.66-12.6-3.66s-8.96,1.24-12.37,3.71c-3.41,2.47-6.02,5.83-7.83,10.08-1.81,4.25-2.72,9.01-2.72,14.28s.91,10.13,2.74,14.4c1.83,4.27,4.48,7.64,7.95,10.13,3.47,2.49,7.73,3.73,12.77,3.73s8.88-1.25,12.2-3.75c2.12-1.59,3.91-3.54,5.38-5.84v6.23c0,4.71-.54,8.65-1.63,11.83s-2.89,5.56-5.41,7.16c-2.52,1.6-5.94,2.4-10.25,2.4-3.06,0-6.08-.71-9.04-2.12-2.96-1.42-5.25-3.77-6.87-7.06l-5.14,3.06c1.58,2.87,3.51,5.16,5.78,6.89,2.27,1.73,4.72,2.98,7.34,3.75,2.62,.77,5.24,1.16,7.88,1.16,4.48,0,8.29-.66,11.44-1.98,3.14-1.32,5.64-3.32,7.48-6,1.84-2.68,3.06-6.08,3.66-10.2,.23-1.45,.38-2.9,.44-4.35,.07-1.45,.1-2.96,.1-4.54V54.84h-5.19v8.91Zm-7.88,37.5c-2.65,1.99-5.97,2.99-9.95,2.99s-7.19-1-9.81-3.01c-2.62-2.01-4.59-4.73-5.93-8.17-1.33-3.44-2-7.32-2-11.63s.64-8.12,1.93-11.53c1.28-3.41,3.24-6.11,5.88-8.1,2.63-1.99,5.98-2.99,10.03-2.99s7.19,.96,9.83,2.89,4.61,4.6,5.93,8.03c1.32,3.43,1.98,7.33,1.98,11.71s-.65,8.24-1.95,11.68-3.28,6.16-5.93,8.15Z"/><path class="cls-1" d="M638.43,101.25c-3.08,1.93-6.68,2.89-10.79,2.89-5.96,0-10.58-1.98-13.86-5.93-3.02-3.64-4.63-8.68-4.87-15.07h43.12c.1-6.26-.82-11.61-2.74-16.05-1.93-4.45-4.73-7.85-8.4-10.2-3.67-2.35-8.09-3.53-13.26-3.53s-9.51,1.14-13.21,3.41c-3.7,2.27-6.57,5.52-8.59,9.76s-3.04,9.26-3.04,15.09,1.02,10.69,3.06,14.89c2.04,4.2,4.92,7.44,8.64,9.73,3.72,2.29,8.13,3.43,13.24,3.43s9.83-1.25,13.88-3.75c4.05-2.5,7.15-6.06,9.29-10.67l-5.14-2.27c-1.81,3.59-4.26,6.35-7.33,8.27Zm-24.65-36.55c3.28-3.97,7.93-5.95,13.95-5.95s10.31,1.91,13.44,5.73c2.66,3.25,4.24,7.77,4.75,13.53h-36.9c.46-5.56,2.03-10.01,4.76-13.31Z"/></g><polygon class="cls-2" points="308.05 173.92 294.37 123.98 280.93 124.08 267.25 173.92 253.57 123.98 240.13 123.98 260.97 195.11 273.57 195.11 287.65 146.01 301.78 195.11 314.37 195.11 335.17 123.98 321.73 123.98 308.05 173.92"/><rect class="cls-2" x="340.2" y="122.6" width="12.79" height="11.46"/><rect class="cls-2" x="340.2" y="141.76" width="12.79" height="53.35"/><polygon class="cls-2" points="361.84 152.93 385.99 152.93 358.92 193.43 358.92 195.11 404.71 195.11 404.71 183.95 378.83 183.95 405.8 143.44 405.8 141.76 361.84 141.76 361.84 152.93"/><path class="cls-2" d="M452.13,150.06c-1.84-3.56-4.58-6.08-8.2-7.56-3.62-1.48-7.8-2.22-12.55-2.22-6.36,0-11.39,1.38-15.12,4.12-3.72,2.75-6.26,6.35-7.61,10.79l11.61,3.66c.89-2.54,2.42-4.31,4.59-5.33,2.17-1.02,4.35-1.53,6.52-1.53,3.72,0,6.37,.79,7.95,2.37,1.27,1.27,2.02,3.14,2.27,5.59-2.21,.33-4.34,.65-6.37,.95-3.42,.51-6.54,1.04-9.34,1.58-2.8,.54-5.22,1.18-7.26,1.9-2.83,1.02-5.11,2.3-6.84,3.83-1.73,1.53-3,3.32-3.8,5.36-.81,2.04-1.21,4.33-1.21,6.87,0,2.93,.68,5.62,2.05,8.08,1.37,2.45,3.38,4.41,6.03,5.88s5.9,2.2,9.76,2.2c4.68,0,8.56-.84,11.66-2.52,2.41-1.31,4.65-3.23,6.72-5.76v6.79h11.21v-32.65c0-2.4-.1-4.58-.3-6.54-.2-1.96-.79-3.91-1.78-5.85Zm-11.9,28.55c-.4,.99-1.12,2.09-2.17,3.31-1.05,1.22-2.47,2.28-4.25,3.19-1.78,.91-3.95,1.36-6.52,1.36-1.71,0-3.15-.25-4.32-.77-1.17-.51-2.07-1.23-2.69-2.17-.63-.94-.94-2.03-.94-3.29,0-.99,.21-1.88,.64-2.67,.43-.79,1.08-1.5,1.95-2.12,.87-.62,1.97-1.19,3.28-1.68,1.28-.46,2.75-.87,4.4-1.24,1.65-.36,3.73-.77,6.25-1.21,1.61-.28,3.49-.6,5.63-.94-.02,.93-.06,1.96-.12,3.14-.1,1.94-.48,3.64-1.14,5.09Z"/><path class="cls-2" d="M487.03,141.59c-1.63,.12-3.22,.41-4.77,.89-1.55,.48-2.98,1.13-4.3,1.95-1.61,.99-2.99,2.22-4.12,3.7-.52,.68-.99,1.4-1.41,2.16v-8.53h-11.31v53.35h12.89v-27.22c0-2.04,.26-3.9,.79-5.58,.53-1.68,1.33-3.16,2.4-4.45s2.4-2.32,3.98-3.11c1.65-.86,3.47-1.36,5.46-1.51,1.99-.15,3.75,0,5.26,.47v-11.95c-1.61-.23-3.24-.29-4.87-.17Z"/><path class="cls-2" d="M531.01,123.98v19.85c-3.41-2.36-7.59-3.54-12.55-3.54s-9.48,1.22-13.24,3.66c-3.75,2.44-6.67,5.77-8.74,10s-3.11,9.06-3.11,14.5,1.02,10.13,3.06,14.37c2.04,4.25,4.9,7.61,8.57,10.08s7.96,3.7,12.87,3.7c5.27,0,9.67-1.23,13.21-3.7,.52-.37,1.02-.76,1.51-1.16v3.38h11.31V123.98h-12.89Zm.35,53.22c-.82,2.52-2.17,4.48-4.05,5.88s-4.35,2.1-7.41,2.1-5.45-.75-7.36-2.25c-1.91-1.5-3.33-3.51-4.25-6.05s-1.38-5.35-1.38-8.45,.48-5.9,1.43-8.42c.95-2.52,2.43-4.54,4.42-6.05,1.99-1.51,4.52-2.27,7.58-2.27,2.9,0,5.25,.7,7.06,2.1,1.81,1.4,3.13,3.36,3.95,5.88s1.24,5.44,1.24,8.77-.41,6.25-1.24,8.77Z"/><path class="cls-2" d="M75.03,214.13v27.6L8.22,190.75c-5.18-3.95-8.22-10.1-8.22-16.62v-17.26l75.03,57.25Z"/><path class="cls-2" d="M203.73,125.13v16.62c0,6.86-3.37,13.29-9.01,17.19l-119.68,82.8v-27.58L203.73,125.13Z"/></g></svg>