<svg version="1.2" baseProfile="tiny-ps" xmlns="http://www.w3.org/2000/svg" viewBox="0 0 774 153" width="774" height="153">
	<title>logo-svg</title>
	<style>
		tspan { white-space:pre }
		.shp0 { fill: #5e5873 } 
		.shp1 { fill: #47c8f5 } 
	</style>
	<g id="Layer_2">
		<g id="Layer_1-2">
			<path id="Layer" class="shp0" d="M7.83 117.93C2.61 112.38 0 104.86 0 95.37C0 85.88 2.58 78.36 7.74 72.81C12.9 67.21 19.65 64.41 28 64.4C29.5 64.36 31 64.45 32.49 64.65C33.98 64.86 35.45 65.19 36.88 65.63C38.32 66.08 39.71 66.64 41.06 67.31C42.4 67.99 43.68 68.77 44.9 69.65C49.63 73.22 52.67 78.46 54 85.38L45 85.38C44.8 84.42 44.51 83.48 44.14 82.57C43.77 81.66 43.33 80.78 42.8 79.95C42.28 79.12 41.69 78.33 41.03 77.6C40.38 76.87 39.65 76.2 38.88 75.6C38.09 75.04 37.26 74.55 36.4 74.12C35.53 73.7 34.63 73.34 33.71 73.06C32.79 72.78 31.84 72.58 30.89 72.45C29.93 72.33 28.96 72.28 28 72.31C26.7 72.26 25.41 72.36 24.13 72.61C22.86 72.86 21.62 73.26 20.44 73.8C19.26 74.33 18.15 75.01 17.12 75.8C16.1 76.59 15.17 77.5 14.35 78.51C10.94 82.65 9.24 88.27 9.24 95.37C9.24 102.47 10.93 108.09 14.32 112.23C15.14 113.24 16.07 114.15 17.1 114.95C18.13 115.74 19.24 116.41 20.43 116.95C21.61 117.49 22.85 117.88 24.13 118.13C25.4 118.38 26.7 118.48 28 118.43C29.03 118.44 30.06 118.36 31.08 118.2C32.1 118.04 33.1 117.79 34.08 117.46C35.06 117.12 36 116.71 36.91 116.22C37.82 115.72 38.68 115.16 39.49 114.52C42.77 111.91 44.74 108.1 45.4 103.11L54.31 103.11C53.57 110.5 50.7 116.22 45.7 120.26C44.47 121.27 43.14 122.16 41.75 122.94C40.36 123.71 38.9 124.36 37.39 124.88C35.89 125.4 34.34 125.78 32.76 126.03C31.19 126.27 29.59 126.38 28 126.34C19.71 126.34 12.99 123.54 7.83 117.93Z" />
			<path id="Layer" fill-rule="evenodd" class="shp0" d="M80.58 126C74.26 126 69.13 123.95 65.18 119.84C61.23 115.73 59.26 110.29 59.27 103.52C59.27 96.69 61.24 91.22 65.18 87.12C69.12 83.02 74.25 80.99 80.58 81.04C86.97 81.04 92.1 83.07 95.99 87.12C99.88 91.17 101.82 96.64 101.81 103.52C101.81 110.35 99.87 115.79 95.99 119.84C92.11 123.89 86.97 125.94 80.58 126ZM89.78 114.76C92.03 112.04 93.16 108.29 93.16 103.52C93.16 98.75 92.03 95 89.78 92.29C89.23 91.62 88.59 91.02 87.9 90.49C87.21 89.96 86.46 89.52 85.66 89.17C84.86 88.81 84.03 88.55 83.18 88.39C82.32 88.23 81.45 88.17 80.58 88.21C79.71 88.17 78.83 88.24 77.98 88.4C77.12 88.56 76.28 88.82 75.48 89.17C74.69 89.53 73.93 89.97 73.23 90.49C72.54 91.02 71.9 91.62 71.34 92.29C69.07 95.01 67.93 98.76 67.93 103.53C67.93 108.3 69.07 112.05 71.34 114.77C71.9 115.44 72.54 116.04 73.23 116.57C73.93 117.09 74.69 117.53 75.48 117.89C76.28 118.24 77.12 118.5 77.98 118.66C78.83 118.82 79.71 118.89 80.58 118.85C81.45 118.89 82.32 118.83 83.18 118.67C84.03 118.51 84.86 118.25 85.66 117.89C86.46 117.54 87.21 117.1 87.9 116.57C88.59 116.04 89.23 115.44 89.78 114.77L89.78 114.76Z" />
			<path id="Layer" class="shp0" d="M135.78 82.05L144.6 82.05L128.12 125.05L118.88 125.05L102.48 82.05L111.48 82.05L117.31 97.79C121.25 109.5 123.36 115.88 123.63 116.93C123.8 116.38 124.16 115.27 124.72 113.6C125.28 111.93 126.05 109.65 127.05 106.74C128.05 103.83 129.05 100.84 130.05 97.79L135.78 82.05Z" />
			<path id="Layer" fill-rule="evenodd" class="shp0" d="M186.06 106.28L153.67 106.28C154.06 110.5 155.31 113.68 157.42 115.81C157.99 116.35 158.61 116.84 159.27 117.26C159.94 117.67 160.64 118.02 161.38 118.3C162.11 118.57 162.88 118.77 163.65 118.89C164.43 119 165.22 119.04 166 119C171.43 119 175 116.62 176.65 111.85L185.06 111.85C184.81 112.87 184.48 113.87 184.06 114.84C183.64 115.8 183.14 116.73 182.56 117.61C181.98 118.49 181.33 119.32 180.62 120.09C179.9 120.86 179.12 121.57 178.28 122.21C177.38 122.86 176.44 123.43 175.45 123.92C174.46 124.41 173.43 124.82 172.37 125.14C171.31 125.46 170.23 125.7 169.14 125.84C168.04 125.98 166.93 126.04 165.83 126C159.67 126 154.7 123.95 150.93 119.84C147.16 115.73 145.27 110.29 145.27 103.52C145.27 96.75 147.16 91.31 150.93 87.2C151.86 86.19 152.9 85.28 154.02 84.49C155.15 83.7 156.35 83.04 157.62 82.51C158.89 81.98 160.21 81.58 161.56 81.34C162.91 81.09 164.29 80.99 165.66 81.04C171.99 81.04 176.99 83.18 180.66 87.45C184.33 91.72 186.13 97.19 186.07 103.85L186.06 106.28ZM153.76 99.66L177.48 99.66C177.42 98.88 177.3 98.1 177.11 97.34C176.92 96.58 176.67 95.84 176.35 95.12C176.04 94.4 175.66 93.71 175.23 93.05C174.8 92.4 174.32 91.78 173.78 91.21C173.25 90.68 172.67 90.2 172.05 89.79C171.42 89.38 170.75 89.03 170.06 88.75C169.36 88.48 168.64 88.28 167.9 88.15C167.16 88.03 166.41 87.98 165.66 88.01C164.93 87.98 164.19 88.02 163.47 88.14C162.74 88.26 162.03 88.44 161.35 88.7C160.66 88.96 160 89.28 159.37 89.67C158.75 90.05 158.17 90.5 157.63 91C155.55 93 154.26 95.89 153.76 99.66Z" />
			<path id="Layer" class="shp0" d="M217.28 81.47L217.28 89.38L215.2 89.38C210.92 89.38 207.62 90.43 205.29 92.54C202.96 94.65 201.8 97.7 201.79 101.7L201.79 125L193.47 125L193.47 82L201.47 82L201.47 89.66C204.19 84.11 208.66 81.33 214.87 81.34C215.07 81.34 215.27 81.34 215.47 81.35C215.67 81.35 215.88 81.36 216.08 81.37C216.28 81.38 216.48 81.39 216.68 81.41C216.88 81.43 217.08 81.45 217.28 81.47L217.28 81.47Z" />
			<path id="Layer" fill-rule="evenodd" class="shp0" d="M259.82 118.6L259.82 125C259.48 125.04 259.14 125.08 258.8 125.12C258.46 125.15 258.12 125.17 257.78 125.2C257.44 125.22 257.1 125.23 256.76 125.24C256.42 125.25 256.08 125.25 255.74 125.25C253.07 125.25 251.09 124.76 249.74 123.79C249.4 123.51 249.08 123.19 248.8 122.84C248.52 122.5 248.28 122.12 248.08 121.73C247.87 121.33 247.71 120.91 247.59 120.48C247.47 120.05 247.4 119.61 247.37 119.17C244.49 123.72 239.82 125.99 233.37 126C228.65 126 224.92 124.88 222.17 122.63C221.49 122.06 220.87 121.42 220.34 120.72C219.81 120.01 219.36 119.24 219 118.43C218.65 117.62 218.39 116.77 218.22 115.9C218.06 115.03 218.01 114.14 218.05 113.26C218.05 105.49 223.43 101.05 234.2 99.94L240.53 99.27C240.96 99.25 241.4 99.19 241.82 99.11C242.25 99.02 242.67 98.91 243.08 98.76C243.5 98.62 243.9 98.45 244.28 98.25C244.67 98.05 245.04 97.82 245.4 97.57C245.66 97.34 245.9 97.09 246.11 96.81C246.32 96.53 246.49 96.22 246.63 95.91C246.77 95.59 246.87 95.25 246.93 94.91C246.99 94.57 247.02 94.22 247 93.87C247.04 93.43 247.03 92.98 246.96 92.54C246.89 92.1 246.77 91.68 246.59 91.27C246.42 90.86 246.2 90.47 245.93 90.12C245.66 89.77 245.35 89.45 245 89.17C243.67 88.2 241.4 87.72 238.21 87.71C234.77 87.71 232.3 88.28 230.8 89.42C229.3 90.56 228.44 92.56 228.22 95.42L219.98 95.42C220.59 85.81 226.67 81 238.21 81.01C249.54 81.01 255.21 85.23 255.21 93.67L255.21 116.39C255.21 117.84 255.98 118.56 257.54 118.56L259.82 118.6ZM243.5 116.52C245.83 114.52 247 111.69 247 108.03L247 103.53C245.94 104.42 244.17 105 241.67 105.28L235.67 105.94C232.45 106.33 230.15 107.1 228.76 108.23C228.11 108.85 227.59 109.59 227.24 110.41C226.88 111.24 226.7 112.12 226.7 113.02C226.7 113.92 226.88 114.8 227.24 115.63C227.59 116.45 228.11 117.19 228.76 117.81C230.12 118.95 232.11 119.51 234.76 119.51C235.55 119.54 236.33 119.49 237.11 119.37C237.89 119.26 238.66 119.07 239.4 118.81C240.15 118.56 240.87 118.24 241.56 117.85C242.24 117.47 242.89 117.02 243.5 116.52Z" />
			<path id="Layer" fill-rule="evenodd" class="shp0" d="M296.36 82.05L304.36 82.05L304.36 123.43C304.36 129.31 302.59 133.93 299.04 137.29C295.49 140.65 290.44 142.32 283.88 142.29C278.28 142.29 273.83 141.02 270.52 138.47C269.71 137.85 268.97 137.14 268.31 136.36C267.65 135.58 267.07 134.74 266.58 133.84C266.1 132.94 265.71 131.99 265.43 131.01C265.14 130.03 264.96 129.02 264.89 128L273.22 128C273.89 133.05 277.47 135.58 283.96 135.57C292.01 135.57 296.03 131.57 296.03 123.57L296.03 118.83C292.76 123.27 288.16 125.49 282.21 125.49C276.26 125.49 271.49 123.46 267.89 119.41C264.28 115.3 262.47 109.91 262.48 103.26C262.49 96.61 264.29 91.22 267.89 87.11C271.44 83.06 276.19 81.04 282.13 81.03C288.4 81.03 293.14 83.39 296.36 88.11L296.36 82.05ZM292.91 114.31C295.16 111.64 296.29 107.98 296.28 103.31C296.27 98.64 295.15 94.98 292.91 92.31C291.75 91.03 290.33 90.01 288.75 89.31C287.17 88.61 285.46 88.25 283.73 88.25C282 88.25 280.29 88.61 278.71 89.31C277.13 90.01 275.71 91.03 274.55 92.31C272.28 95.03 271.14 98.7 271.14 103.31C271.14 107.92 272.28 111.59 274.55 114.31C275.72 115.58 277.13 116.6 278.72 117.3C280.3 117.99 282 118.35 283.73 118.35C285.46 118.35 287.16 117.99 288.74 117.3C290.33 116.6 291.74 115.58 292.91 114.31Z" />
			<path id="Layer" fill-rule="evenodd" class="shp0" d="M352.56 106.28L320.17 106.28C320.56 110.5 321.81 113.68 323.92 115.81C324.48 116.35 325.1 116.84 325.77 117.26C326.43 117.68 327.14 118.03 327.87 118.3C328.61 118.58 329.37 118.77 330.14 118.89C330.92 119.01 331.71 119.05 332.49 119.01C337.93 119.01 341.48 116.63 343.15 111.86L351.56 111.86C351.31 112.88 350.97 113.88 350.56 114.85C350.14 115.82 349.64 116.74 349.06 117.63C348.48 118.51 347.83 119.34 347.11 120.11C346.39 120.88 345.61 121.58 344.77 122.22C343.87 122.87 342.93 123.44 341.94 123.93C340.95 124.42 339.92 124.82 338.86 125.15C337.81 125.47 336.73 125.7 335.63 125.84C334.54 125.99 333.43 126.04 332.33 126C326.16 126 321.19 123.95 317.42 119.84C313.65 115.73 311.76 110.29 311.76 103.52C311.76 96.75 313.65 91.31 317.42 87.2C318.35 86.19 319.39 85.28 320.51 84.49C321.64 83.7 322.85 83.04 324.12 82.51C325.38 81.98 326.71 81.59 328.06 81.34C329.41 81.09 330.79 80.99 332.16 81.04C338.49 81.04 343.49 83.18 347.16 87.45C350.83 91.72 352.64 97.19 352.58 103.85L352.56 106.28ZM324.12 91C322.04 93 320.75 95.89 320.25 99.66L344 99.66C343.94 98.88 343.82 98.1 343.63 97.34C343.44 96.58 343.19 95.84 342.87 95.12C342.56 94.4 342.18 93.71 341.75 93.06C341.32 92.4 340.83 91.78 340.3 91.21C339.77 90.68 339.19 90.2 338.57 89.79C337.94 89.38 337.27 89.03 336.58 88.76C335.88 88.48 335.16 88.28 334.42 88.15C333.68 88.03 332.93 87.98 332.18 88.01C331.44 87.98 330.71 88.02 329.98 88.14C329.25 88.25 328.54 88.44 327.85 88.7C327.16 88.95 326.5 89.28 325.87 89.66C325.24 90.05 324.66 90.5 324.12 91Z" />
			<path id="Layer" class="shp0" d="M423.32 65.73L438 65.73L421.73 125L406 125L401.09 104C399.53 97.73 398.06 90.59 396.68 82.6C395.46 89.04 393.99 96.17 392.26 104L387.26 125L371.53 125L355.3 65.73L370 65.73L375 86.05C377.11 94.72 378.86 102.46 380.24 109.27C382.13 99.27 383.68 91.53 384.9 86.05L389.65 65.73L403.72 65.73L408.46 86.05C410.02 92.82 411.58 100.61 413.13 109.44C413.9 105.89 415.65 98.1 418.37 86.05L423.32 65.73Z" />
			<path id="Layer" class="shp0" d="M440.63 125L440.63 82L453.63 82L453.63 125L440.63 125ZM441 77.14L441 66.14L453.41 66.14L453.41 77.14L441 77.14Z" />
			<path id="Layer" class="shp0" d="M497.16 115.35L497.16 125L459.53 125L459.53 116.84L474.76 98C476.71 95.61 478.48 93.47 480.09 91.59C478.81 91.64 475.93 91.67 471.43 91.67L459.69 91.67L459.69 82.05L496.33 82.05L496.33 90.21L481.09 109C479.15 111.39 477.37 113.53 475.76 115.42C477.04 115.36 479.92 115.33 484.42 115.33L497.16 115.35Z" />
			<path id="Layer" fill-rule="evenodd" class="shp0" d="M530.62 125C530.44 124.62 530.29 124.24 530.15 123.84C530.02 123.45 529.9 123.05 529.81 122.65C529.72 122.24 529.65 121.83 529.61 121.42C529.56 121 529.54 120.59 529.54 120.17C526.65 124.06 522.07 126 515.8 126C511.09 126 507.31 124.83 504.44 122.5C503.73 121.92 503.1 121.26 502.54 120.53C501.99 119.8 501.52 119.01 501.15 118.18C500.78 117.34 500.51 116.47 500.34 115.57C500.17 114.67 500.11 113.75 500.15 112.84C500.15 104.84 505.76 100.37 516.97 99.44L523.71 98.86C527.43 98.47 529.29 97.05 529.29 94.61C529.29 91.73 527.1 90.28 522.71 90.28C520.05 90.28 518.18 90.69 517.1 91.49C516.02 92.29 515.36 93.78 515.1 95.94L502.23 95.94C503.01 86.01 509.87 81.04 522.8 81.04C535.56 81.04 541.94 85.45 541.95 94.28L541.95 117.1C541.95 120.71 542.53 123.34 543.69 125.01L530.62 125ZM529.29 108.13L529.29 105C528.51 105.83 527.07 106.38 524.96 106.66L519.63 107.24C515.47 107.69 513.39 109.41 513.39 112.4C513.38 112.74 513.41 113.08 513.47 113.42C513.54 113.75 513.65 114.08 513.79 114.39C513.94 114.7 514.12 114.99 514.33 115.26C514.55 115.53 514.79 115.77 515.06 115.98C515.4 116.22 515.75 116.43 516.12 116.61C516.49 116.79 516.88 116.94 517.27 117.05C517.67 117.16 518.08 117.24 518.49 117.29C518.9 117.33 519.31 117.34 519.72 117.32C520.35 117.35 520.98 117.32 521.6 117.24C522.22 117.15 522.84 117.01 523.43 116.81C524.03 116.62 524.61 116.36 525.16 116.06C525.71 115.75 526.23 115.4 526.71 115C528.43 113.47 529.29 111.18 529.29 108.13Z" />
			<path id="Layer" class="shp0" d="M576.57 81.55L576.57 93.37L573.25 93.37C565.64 93.37 561.84 97.26 561.84 105.03L561.84 125.03L548.84 125.03L548.84 82.03L561.5 82.03L561.5 90.03C563.5 84.26 567.58 81.37 573.74 81.38C574 81.39 574.91 81.44 576.57 81.55Z" />
			<path id="Layer" fill-rule="evenodd" class="shp0" d="M609.79 65.73L622.79 65.73L622.79 125L610.12 125L610.12 119.42C607.24 123.81 602.94 126 597.22 126C591.5 126 586.95 123.97 583.57 119.92C580.18 115.87 578.48 110.4 578.49 103.52C578.5 96.64 580.19 91.17 583.57 87.12C586.9 83.07 591.45 81.05 597.22 81.04C602.66 81.04 606.85 83.09 609.79 87.2L609.79 65.73ZM610.04 103.53C610.04 95.48 606.96 91.46 600.8 91.46C600.15 91.43 599.5 91.48 598.87 91.61C598.24 91.74 597.62 91.95 597.03 92.23C596.45 92.5 595.9 92.85 595.4 93.26C594.9 93.67 594.45 94.14 594.06 94.66C592.45 96.8 591.65 99.87 591.64 103.86C591.64 111.69 594.69 115.6 600.8 115.6C606.91 115.6 609.97 111.58 610 103.53L610.04 103.53Z" />
			<path id="Layer" class="shp1" d="M670.93 91.71C666.75 87.53 664.66 81.86 664.67 74.71C664.68 67.56 666.72 61.89 670.8 57.71C674.85 53.53 680.43 51.44 687.52 51.45C688.82 51.41 690.13 51.49 691.42 51.67C692.72 51.85 693.99 52.14 695.24 52.53C696.48 52.92 697.69 53.42 698.85 54.01C700.01 54.61 701.12 55.3 702.17 56.08C703.16 56.87 704.08 57.76 704.9 58.73C705.72 59.71 706.44 60.75 707.06 61.87C707.67 62.98 708.18 64.15 708.57 65.36C708.96 66.57 709.22 67.82 709.37 69.08L696.73 69.08C696.61 68.58 696.45 68.08 696.25 67.61C696.05 67.13 695.8 66.67 695.52 66.24C695.24 65.8 694.92 65.39 694.56 65.02C694.21 64.64 693.82 64.29 693.41 63.98C692.98 63.68 692.53 63.41 692.07 63.18C691.6 62.95 691.11 62.76 690.61 62.61C690.11 62.45 689.6 62.34 689.08 62.27C688.56 62.2 688.04 62.18 687.52 62.19C686.83 62.15 686.13 62.19 685.44 62.31C684.76 62.44 684.09 62.64 683.46 62.92C682.82 63.21 682.22 63.57 681.67 63.99C681.12 64.42 680.62 64.91 680.19 65.45C678.52 67.62 677.68 70.73 677.69 74.78C677.7 78.83 678.53 81.94 680.19 84.11C680.62 84.65 681.12 85.14 681.67 85.57C682.22 85.99 682.82 86.35 683.46 86.64C684.09 86.92 684.76 87.12 685.44 87.25C686.13 87.37 686.83 87.41 687.52 87.37C688.08 87.39 688.63 87.37 689.19 87.29C689.74 87.22 690.28 87.1 690.81 86.93C691.34 86.76 691.86 86.54 692.35 86.28C692.84 86.02 693.31 85.71 693.75 85.37C694.17 85.01 694.56 84.61 694.91 84.17C695.27 83.74 695.58 83.28 695.85 82.79C696.12 82.3 696.34 81.79 696.52 81.26C696.7 80.73 696.83 80.19 696.91 79.64L709.44 79.64C708.73 85.49 706.39 90.02 702.44 93.23C698.49 96.44 693.51 98.03 687.52 98C680.59 98 675.06 95.9 670.93 91.71Z" />
			<path id="Layer" class="shp1" d="M704 19.76L743 42.26L743 87.26C743.08 88.66 743.7 89.98 744.72 90.94C745.75 91.9 747.1 92.44 748.5 92.44C749.9 92.44 751.25 91.9 752.28 90.94C753.3 89.98 753.92 88.66 754 87.26L754 39.08C754 38.6 753.94 38.12 753.81 37.65C753.68 37.19 753.5 36.74 753.26 36.33C753.02 35.91 752.72 35.53 752.38 35.19C752.04 34.85 751.66 34.55 751.24 34.31L709.49 10.22C708.23 9.57 706.77 9.44 705.41 9.84C704.06 10.24 702.91 11.15 702.2 12.38C701.5 13.6 701.29 15.05 701.62 16.43C701.96 17.8 702.81 19 704 19.76L704 19.76Z" />
			<path id="Layer" class="shp1" d="M770.89 24.83L729.16 0.74C727.9 0.05 726.42 -0.12 725.03 0.27C723.64 0.66 722.47 1.57 721.75 2.82C721.03 4.07 720.82 5.54 721.18 6.94C721.53 8.33 722.42 9.53 723.65 10.28L762.65 32.78L762.65 77.78C762.73 79.18 763.35 80.5 764.37 81.46C765.4 82.42 766.75 82.96 768.15 82.96C769.55 82.96 770.9 82.42 771.93 81.46C772.95 80.5 773.57 79.18 773.65 77.78L773.65 29.6C773.65 29.12 773.59 28.64 773.46 28.17C773.34 27.71 773.15 27.26 772.91 26.85C772.67 26.43 772.37 26.04 772.03 25.7C771.69 25.36 771.31 25.07 770.89 24.83L770.89 24.83Z" />
			<path id="Layer" class="shp1" d="M765.32 94.24L687.22 140.8L651 119L651 54.11L687.2 33.2L723.42 54.11L723.42 95.94L687.33 116.78L667.63 104.34C666.39 103.57 664.9 103.32 663.48 103.65C662.07 103.97 660.83 104.84 660.06 106.08C659.28 107.31 659.02 108.8 659.34 110.22C659.66 111.64 660.52 112.88 661.75 113.66L684.26 127.87C684.48 128.01 684.71 128.13 684.94 128.23C685.18 128.34 685.42 128.43 685.67 128.5C685.92 128.57 686.17 128.63 686.43 128.66C686.68 128.7 686.94 128.72 687.2 128.72C687.44 128.72 687.69 128.71 687.93 128.68C688.17 128.65 688.41 128.61 688.65 128.55C688.88 128.49 689.12 128.41 689.34 128.32C689.57 128.23 689.79 128.12 690 128L731.73 103.91C732.15 103.67 732.53 103.37 732.87 103.03C733.21 102.69 733.51 102.31 733.75 101.89C733.99 101.48 734.17 101.03 734.3 100.57C734.43 100.1 734.49 99.62 734.49 99.14L734.49 50.93C734.49 50.45 734.43 49.97 734.3 49.5C734.18 49.04 733.99 48.59 733.75 48.17C733.51 47.76 733.22 47.37 732.87 47.03C732.53 46.69 732.15 46.4 731.73 46.16L690 22.07L689.67 21.89L689.67 21.89L689.27 21.72L689.17 21.72C689.1 21.69 689.02 21.67 688.94 21.64C688.87 21.62 688.79 21.6 688.72 21.58C688.64 21.56 688.56 21.54 688.48 21.52C688.41 21.51 688.33 21.49 688.25 21.48L688.14 21.48L687.72 21.48L687 21.48L686.64 21.48L686.52 21.48C686.48 21.48 686.45 21.49 686.41 21.49C686.38 21.5 686.34 21.5 686.3 21.51C686.27 21.51 686.23 21.52 686.2 21.53C686.16 21.53 686.13 21.54 686.09 21.55L685.93 21.55L685.56 21.65L685.48 21.65L685.04 21.82L684.92 21.87C684.88 21.89 684.84 21.9 684.81 21.92C684.77 21.94 684.73 21.96 684.7 21.98C684.66 22 684.62 22.02 684.59 22.04C684.55 22.06 684.52 22.08 684.48 22.1L663.71 34L642.71 46.12L642.55 46.22C642.15 46.47 641.79 46.76 641.47 47.1C641.15 47.44 640.87 47.81 640.65 48.22C640.42 48.63 640.25 49.06 640.13 49.51C640.01 49.96 639.95 50.42 639.95 50.89L639.95 99.12L639.95 99.12L639.95 122.07C639.95 122.54 640.01 123.01 640.13 123.47C640.25 123.93 640.43 124.37 640.66 124.78C640.9 125.19 641.18 125.57 641.51 125.91C641.84 126.25 642.21 126.55 642.62 126.79L684.35 151.94C684.78 152.2 685.23 152.39 685.71 152.53C686.19 152.66 686.68 152.73 687.18 152.73C687.68 152.73 688.17 152.66 688.65 152.53C689.13 152.39 689.58 152.2 690.01 151.94L771 103.71C771.4 103.47 771.77 103.17 772.1 102.83C772.43 102.49 772.71 102.11 772.94 101.7C773.17 101.29 773.35 100.85 773.47 100.4C773.59 99.94 773.65 99.47 773.65 99L773.65 99C773.65 98.02 773.4 97.06 772.91 96.22C772.42 95.37 771.72 94.67 770.87 94.19C770.03 93.71 769.07 93.46 768.09 93.46C767.11 93.47 766.16 93.74 765.32 94.24L765.32 94.24Z" />
		</g>
	</g>
</svg>